<svg width="1456" height="877" viewBox="0 0 1456 877" fill="none" xmlns="http://www.w3.org/2000/svg">
<path d="M235 110C232.925 110 230.975 109.606 229.15 108.818C227.325 108.031 225.738 106.963 224.388 105.613C223.038 104.263 221.969 102.675 221.182 100.85C220.394 99.025 220 97.075 220 95C220 92.925 220.394 90.975 221.182 89.15C221.969 87.325 223.038 85.7375 224.388 84.3875C225.738 83.0375 227.325 81.9685 229.15 81.1805C230.975 80.3935 232.925 80 235 80C237.075 80 239.025 80.3935 240.85 81.1805C242.675 81.9685 244.263 83.0375 245.613 84.3875C246.963 85.7375 248.031 87.325 248.818 89.15C249.606 90.975 250 92.925 250 95C250 97.075 249.606 99.025 248.818 100.85C248.031 102.675 246.963 104.263 245.613 105.613C244.263 106.963 242.675 108.031 240.85 108.818C239.025 109.606 237.075 110 235 110ZM235 107C238.35 107 241.187 105.837 243.512 103.512C245.837 101.187 247 98.35 247 95C247 91.65 245.837 88.8125 243.512 86.4875C241.187 84.1625 238.35 83 235 83C231.65 83 228.812 84.1625 226.487 86.4875C224.162 88.8125 223 91.65 223 95C223 98.35 224.162 101.187 226.487 103.512C228.812 105.837 231.65 107 235 107Z" fill="#333333" fill-opacity="0.1"/>
<path d="M338 231C335.925 231 333.975 230.606 332.15 229.818C330.325 229.031 328.738 227.963 327.388 226.613C326.038 225.263 324.969 223.675 324.182 221.85C323.394 220.025 323 218.075 323 216C323 213.925 323.394 211.975 324.182 210.15C324.969 208.325 326.038 206.738 327.388 205.388C328.738 204.038 330.325 202.968 332.15 202.18C333.975 201.393 335.925 201 338 201C340.075 201 342.025 201.393 343.85 202.18C345.675 202.968 347.263 204.038 348.613 205.388C349.963 206.738 351.031 208.325 351.818 210.15C352.606 211.975 353 213.925 353 216C353 218.075 352.606 220.025 351.818 221.85C351.031 223.675 349.963 225.263 348.613 226.613C347.263 227.963 345.675 229.031 343.85 229.818C342.025 230.606 340.075 231 338 231ZM338 228C341.35 228 344.187 226.837 346.512 224.512C348.837 222.187 350 219.35 350 216C350 212.65 348.837 209.812 346.512 207.487C344.187 205.162 341.35 204 338 204C334.65 204 331.812 205.162 329.487 207.487C327.162 209.812 326 212.65 326 216C326 219.35 327.162 222.187 329.487 224.512C331.812 226.837 334.65 228 338 228Z" fill="#333333" fill-opacity="0.1"/>
<path d="M380 381C377.925 381 375.975 380.606 374.15 379.818C372.325 379.031 370.738 377.963 369.388 376.613C368.038 375.263 366.969 373.675 366.182 371.85C365.394 370.025 365 368.075 365 366C365 363.925 365.394 361.975 366.182 360.15C366.969 358.325 368.038 356.738 369.388 355.388C370.738 354.038 372.325 352.968 374.15 352.18C375.975 351.393 377.925 351 380 351C382.075 351 384.025 351.393 385.85 352.18C387.675 352.968 389.263 354.038 390.613 355.388C391.963 356.738 393.031 358.325 393.818 360.15C394.606 361.975 395 363.925 395 366C395 368.075 394.606 370.025 393.818 371.85C393.031 373.675 391.963 375.263 390.613 376.613C389.263 377.963 387.675 379.031 385.85 379.818C384.025 380.606 382.075 381 380 381ZM380 378C383.35 378 386.187 376.837 388.512 374.512C390.837 372.187 392 369.35 392 366C392 362.65 390.837 359.812 388.512 357.487C386.187 355.162 383.35 354 380 354C376.65 354 373.812 355.162 371.487 357.487C369.162 359.812 368 362.65 368 366C368 369.35 369.162 372.187 371.487 374.512C373.812 376.837 376.65 378 380 378Z" fill="#333333" fill-opacity="0.1"/>
<path d="M570 292C567.925 292 565.975 291.606 564.15 290.818C562.325 290.031 560.738 288.963 559.388 287.613C558.038 286.263 556.969 284.675 556.182 282.85C555.394 281.025 555 279.075 555 277C555 274.925 555.394 272.975 556.182 271.15C556.969 269.325 558.038 267.738 559.388 266.388C560.738 265.038 562.325 263.968 564.15 263.18C565.975 262.393 567.925 262 570 262C572.075 262 574.025 262.393 575.85 263.18C577.675 263.968 579.263 265.038 580.613 266.388C581.963 267.738 583.031 269.325 583.818 271.15C584.606 272.975 585 274.925 585 277C585 279.075 584.606 281.025 583.818 282.85C583.031 284.675 581.963 286.263 580.613 287.613C579.263 288.963 577.675 290.031 575.85 290.818C574.025 291.606 572.075 292 570 292ZM570 289C573.35 289 576.187 287.837 578.512 285.512C580.837 283.187 582 280.35 582 277C582 273.65 580.837 270.812 578.512 268.487C576.187 266.162 573.35 265 570 265C566.65 265 563.812 266.162 561.487 268.487C559.162 270.812 558 273.65 558 277C558 280.35 559.162 283.187 561.487 285.512C563.812 287.837 566.65 289 570 289Z" fill="#333333" fill-opacity="0.1"/>
<path d="M847 70C844.925 70 842.975 69.606 841.15 68.818C839.325 68.031 837.738 66.9625 836.388 65.6125C835.038 64.2625 833.969 62.675 833.182 60.85C832.394 59.025 832 57.075 832 55C832 52.925 832.394 50.975 833.182 49.15C833.969 47.325 835.038 45.7375 836.388 44.3875C837.738 43.0375 839.325 41.9685 841.15 41.1805C842.975 40.3935 844.925 40 847 40C849.075 40 851.025 40.3935 852.85 41.1805C854.675 41.9685 856.263 43.0375 857.613 44.3875C858.963 45.7375 860.031 47.325 860.818 49.15C861.606 50.975 862 52.925 862 55C862 57.075 861.606 59.025 860.818 60.85C860.031 62.675 858.963 64.2625 857.613 65.6125C856.263 66.9625 854.675 68.031 852.85 68.818C851.025 69.606 849.075 70 847 70ZM847 67C850.35 67 853.187 65.8375 855.512 63.5125C857.837 61.1875 859 58.35 859 55C859 51.65 857.837 48.8125 855.512 46.4875C853.187 44.1625 850.35 43 847 43C843.65 43 840.812 44.1625 838.487 46.4875C836.162 48.8125 835 51.65 835 55C835 58.35 836.162 61.1875 838.487 63.5125C840.812 65.8375 843.65 67 847 67Z" fill="#333333" fill-opacity="0.1"/>
<path d="M946 267C943.925 267 941.975 266.606 940.15 265.818C938.325 265.031 936.738 263.963 935.388 262.613C934.038 261.263 932.969 259.675 932.182 257.85C931.394 256.025 931 254.075 931 252C931 249.925 931.394 247.975 932.182 246.15C932.969 244.325 934.038 242.738 935.388 241.388C936.738 240.038 938.325 238.968 940.15 238.18C941.975 237.393 943.925 237 946 237C948.075 237 950.025 237.393 951.85 238.18C953.675 238.968 955.263 240.038 956.613 241.388C957.963 242.738 959.031 244.325 959.818 246.15C960.606 247.975 961 249.925 961 252C961 254.075 960.606 256.025 959.818 257.85C959.031 259.675 957.963 261.263 956.613 262.613C955.263 263.963 953.675 265.031 951.85 265.818C950.025 266.606 948.075 267 946 267ZM946 264C949.35 264 952.187 262.837 954.512 260.512C956.837 258.187 958 255.35 958 252C958 248.65 956.837 245.812 954.512 243.487C952.187 241.162 949.35 240 946 240C942.65 240 939.812 241.162 937.487 243.487C935.162 245.812 934 248.65 934 252C934 255.35 935.162 258.187 937.487 260.512C939.812 262.837 942.65 264 946 264Z" fill="#333333" fill-opacity="0.1"/>
<path d="M74 412C71.925 412 69.975 411.606 68.15 410.818C66.325 410.031 64.7375 408.963 63.3875 407.613C62.0375 406.263 60.969 404.675 60.182 402.85C59.394 401.025 59 399.075 59 397C59 394.925 59.394 392.975 60.182 391.15C60.969 389.325 62.0375 387.738 63.3875 386.388C64.7375 385.038 66.325 383.969 68.15 383.181C69.975 382.394 71.925 382 74 382C76.075 382 78.025 382.394 79.85 383.181C81.675 383.969 83.2625 385.038 84.6125 386.388C85.9625 387.738 87.031 389.325 87.818 391.15C88.606 392.975 89 394.925 89 397C89 399.075 88.606 401.025 87.818 402.85C87.031 404.675 85.9625 406.263 84.6125 407.613C83.2625 408.963 81.675 410.031 79.85 410.818C78.025 411.606 76.075 412 74 412ZM74 409C77.35 409 80.1875 407.838 82.5125 405.513C84.8375 403.188 86 400.35 86 397C86 393.65 84.8375 390.813 82.5125 388.488C80.1875 386.163 77.35 385 74 385C70.65 385 67.8125 386.163 65.4875 388.488C63.1625 390.813 62 393.65 62 397C62 400.35 63.1625 403.188 65.4875 405.513C67.8125 407.838 70.65 409 74 409Z" fill="#333333" fill-opacity="0.1"/>
<path d="M186 492C183.925 492 181.975 491.606 180.15 490.818C178.325 490.031 176.738 488.963 175.388 487.613C174.038 486.263 172.969 484.675 172.182 482.85C171.394 481.025 171 479.075 171 477C171 474.925 171.394 472.975 172.182 471.15C172.969 469.325 174.038 467.738 175.388 466.388C176.738 465.038 178.325 463.968 180.15 463.18C181.975 462.393 183.925 462 186 462C188.075 462 190.025 462.393 191.85 463.18C193.675 463.968 195.263 465.038 196.613 466.388C197.963 467.738 199.031 469.325 199.818 471.15C200.606 472.975 201 474.925 201 477C201 479.075 200.606 481.025 199.818 482.85C199.031 484.675 197.963 486.263 196.613 487.613C195.263 488.963 193.675 490.031 191.85 490.818C190.025 491.606 188.075 492 186 492ZM186 489C189.35 489 192.187 487.837 194.512 485.512C196.837 483.187 198 480.35 198 477C198 473.65 196.837 470.812 194.512 468.487C192.187 466.162 189.35 465 186 465C182.65 465 179.812 466.162 177.487 468.487C175.162 470.812 174 473.65 174 477C174 480.35 175.162 483.187 177.487 485.512C179.812 487.837 182.65 489 186 489Z" fill="#333333" fill-opacity="0.1"/>
<path d="M40 40C37.925 40 35.975 39.606 34.15 38.818C32.325 38.031 30.7375 36.9625 29.3875 35.6125C28.0375 34.2625 26.969 32.675 26.182 30.85C25.394 29.025 25 27.075 25 25C25 22.925 25.394 20.975 26.182 19.15C26.969 17.325 28.0375 15.7375 29.3875 14.3875C30.7375 13.0375 32.325 11.9685 34.15 11.1805C35.975 10.3935 37.925 10 40 10C42.075 10 44.025 10.3935 45.85 11.1805C47.675 11.9685 49.2625 13.0375 50.6125 14.3875C51.9625 15.7375 53.031 17.325 53.818 19.15C54.606 20.975 55 22.925 55 25C55 27.075 54.606 29.025 53.818 30.85C53.031 32.675 51.9625 34.2625 50.6125 35.6125C49.2625 36.9625 47.675 38.031 45.85 38.818C44.025 39.606 42.075 40 40 40ZM40 37C43.35 37 46.1875 35.8375 48.5125 33.5125C50.8375 31.1875 52 28.35 52 25C52 21.65 50.8375 18.8125 48.5125 16.4875C46.1875 14.1625 43.35 13 40 13C36.65 13 33.8125 14.1625 31.4875 16.4875C29.1625 18.8125 28 21.65 28 25C28 28.35 29.1625 31.1875 31.4875 33.5125C33.8125 35.8375 36.65 37 40 37Z" fill="#333333" fill-opacity="0.1"/>
<path d="M156 739C153.925 739 151.975 738.606 150.15 737.818C148.325 737.031 146.738 735.963 145.388 734.613C144.038 733.263 142.969 731.675 142.182 729.85C141.394 728.025 141 726.075 141 724C141 721.925 141.394 719.975 142.182 718.15C142.969 716.325 144.038 714.738 145.388 713.388C146.738 712.038 148.325 710.968 150.15 710.18C151.975 709.393 153.925 709 156 709C158.075 709 160.025 709.393 161.85 710.18C163.675 710.968 165.263 712.038 166.613 713.388C167.963 714.738 169.031 716.325 169.818 718.15C170.606 719.975 171 721.925 171 724C171 726.075 170.606 728.025 169.818 729.85C169.031 731.675 167.963 733.263 166.613 734.613C165.263 735.963 163.675 737.031 161.85 737.818C160.025 738.606 158.075 739 156 739ZM156 736C159.35 736 162.187 734.837 164.512 732.512C166.837 730.187 168 727.35 168 724C168 720.65 166.837 717.812 164.512 715.487C162.187 713.162 159.35 712 156 712C152.65 712 149.812 713.162 147.487 715.487C145.162 717.812 144 720.65 144 724C144 727.35 145.162 730.187 147.487 732.512C149.812 734.837 152.65 736 156 736Z" fill="#333333" fill-opacity="0.1"/>
<path d="M304 863C301.925 863 299.975 862.606 298.15 861.818C296.325 861.031 294.738 859.963 293.388 858.613C292.038 857.263 290.969 855.675 290.182 853.85C289.394 852.025 289 850.075 289 848C289 845.925 289.394 843.975 290.182 842.15C290.969 840.325 292.038 838.738 293.388 837.388C294.738 836.038 296.325 834.968 298.15 834.18C299.975 833.393 301.925 833 304 833C306.075 833 308.025 833.393 309.85 834.18C311.675 834.968 313.263 836.038 314.613 837.388C315.963 838.738 317.031 840.325 317.818 842.15C318.606 843.975 319 845.925 319 848C319 850.075 318.606 852.025 317.818 853.85C317.031 855.675 315.963 857.263 314.613 858.613C313.263 859.963 311.675 861.031 309.85 861.818C308.025 862.606 306.075 863 304 863ZM304 860C307.35 860 310.187 858.837 312.512 856.512C314.837 854.187 316 851.35 316 848C316 844.65 314.837 841.812 312.512 839.487C310.187 837.162 307.35 836 304 836C300.65 836 297.812 837.162 295.487 839.487C293.162 841.812 292 844.65 292 848C292 851.35 293.162 854.187 295.487 856.512C297.812 858.837 300.65 860 304 860Z" fill="#333333" fill-opacity="0.1"/>
<path d="M668 823C665.925 823 663.975 822.606 662.15 821.818C660.325 821.031 658.738 819.963 657.388 818.613C656.038 817.263 654.969 815.675 654.182 813.85C653.394 812.025 653 810.075 653 808C653 805.925 653.394 803.975 654.182 802.15C654.969 800.325 656.038 798.738 657.388 797.388C658.738 796.038 660.325 794.968 662.15 794.18C663.975 793.393 665.925 793 668 793C670.075 793 672.025 793.393 673.85 794.18C675.675 794.968 677.263 796.038 678.613 797.388C679.963 798.738 681.031 800.325 681.818 802.15C682.606 803.975 683 805.925 683 808C683 810.075 682.606 812.025 681.818 813.85C681.031 815.675 679.963 817.263 678.613 818.613C677.263 819.963 675.675 821.031 673.85 821.818C672.025 822.606 670.075 823 668 823ZM668 820C671.35 820 674.187 818.837 676.512 816.512C678.837 814.187 680 811.35 680 808C680 804.65 678.837 801.812 676.512 799.487C674.187 797.162 671.35 796 668 796C664.65 796 661.812 797.162 659.487 799.487C657.162 801.812 656 804.65 656 808C656 811.35 657.162 814.187 659.487 816.512C661.812 818.837 664.65 820 668 820Z" fill="#333333" fill-opacity="0.1"/>
<path d="M868 769C865.925 769 863.975 768.606 862.15 767.818C860.325 767.031 858.738 765.963 857.388 764.613C856.038 763.263 854.969 761.675 854.182 759.85C853.394 758.025 853 756.075 853 754C853 751.925 853.394 749.975 854.182 748.15C854.969 746.325 856.038 744.738 857.388 743.388C858.738 742.038 860.325 740.968 862.15 740.18C863.975 739.393 865.925 739 868 739C870.075 739 872.025 739.393 873.85 740.18C875.675 740.968 877.263 742.038 878.613 743.388C879.963 744.738 881.031 746.325 881.818 748.15C882.606 749.975 883 751.925 883 754C883 756.075 882.606 758.025 881.818 759.85C881.031 761.675 879.963 763.263 878.613 764.613C877.263 765.963 875.675 767.031 873.85 767.818C872.025 768.606 870.075 769 868 769ZM868 766C871.35 766 874.187 764.837 876.512 762.512C878.837 760.187 880 757.35 880 754C880 750.65 878.837 747.812 876.512 745.487C874.187 743.162 871.35 742 868 742C864.65 742 861.812 743.162 859.487 745.487C857.162 747.812 856 750.65 856 754C856 757.35 857.162 760.187 859.487 762.512C861.812 764.837 864.65 766 868 766Z" fill="#333333" fill-opacity="0.1"/>
<path d="M711 591C708.925 591 706.975 590.606 705.15 589.818C703.325 589.031 701.738 587.963 700.388 586.613C699.038 585.263 697.969 583.675 697.182 581.85C696.394 580.025 696 578.075 696 576C696 573.925 696.394 571.975 697.182 570.15C697.969 568.325 699.038 566.738 700.388 565.388C701.738 564.038 703.325 562.968 705.15 562.18C706.975 561.393 708.925 561 711 561C713.075 561 715.025 561.393 716.85 562.18C718.675 562.968 720.263 564.038 721.613 565.388C722.963 566.738 724.031 568.325 724.818 570.15C725.606 571.975 726 573.925 726 576C726 578.075 725.606 580.025 724.818 581.85C724.031 583.675 722.963 585.263 721.613 586.613C720.263 587.963 718.675 589.031 716.85 589.818C715.025 590.606 713.075 591 711 591ZM711 588C714.35 588 717.187 586.837 719.512 584.512C721.837 582.187 723 579.35 723 576C723 572.65 721.837 569.812 719.512 567.487C717.187 565.162 714.35 564 711 564C707.65 564 704.812 565.162 702.487 567.487C700.162 569.812 699 572.65 699 576C699 579.35 700.162 582.187 702.487 584.512C704.812 586.837 707.65 588 711 588Z" fill="#333333" fill-opacity="0.1"/>
<path d="M760 425C757.925 425 755.975 424.606 754.15 423.818C752.325 423.031 750.738 421.963 749.388 420.613C748.038 419.263 746.969 417.675 746.182 415.85C745.394 414.025 745 412.075 745 410C745 407.925 745.394 405.975 746.182 404.15C746.969 402.325 748.038 400.738 749.388 399.388C750.738 398.038 752.325 396.968 754.15 396.18C755.975 395.393 757.925 395 760 395C762.075 395 764.025 395.393 765.85 396.18C767.675 396.968 769.263 398.038 770.613 399.388C771.963 400.738 773.031 402.325 773.818 404.15C774.606 405.975 775 407.925 775 410C775 412.075 774.606 414.025 773.818 415.85C773.031 417.675 771.963 419.263 770.613 420.613C769.263 421.963 767.675 423.031 765.85 423.818C764.025 424.606 762.075 425 760 425ZM760 422C763.35 422 766.187 420.837 768.512 418.512C770.837 416.187 772 413.35 772 410C772 406.65 770.837 403.812 768.512 401.487C766.187 399.162 763.35 398 760 398C756.65 398 753.812 399.162 751.487 401.487C749.162 403.812 748 406.65 748 410C748 413.35 749.162 416.187 751.487 418.512C753.812 420.837 756.65 422 760 422Z" fill="#333333" fill-opacity="0.1"/>
<path d="M911 484C908.925 484 906.975 483.606 905.15 482.818C903.325 482.031 901.738 480.963 900.388 479.613C899.038 478.263 897.969 476.675 897.182 474.85C896.394 473.025 896 471.075 896 469C896 466.925 896.394 464.975 897.182 463.15C897.969 461.325 899.038 459.738 900.388 458.388C901.738 457.038 903.325 455.968 905.15 455.18C906.975 454.393 908.925 454 911 454C913.075 454 915.025 454.393 916.85 455.18C918.675 455.968 920.263 457.038 921.613 458.388C922.963 459.738 924.031 461.325 924.818 463.15C925.606 464.975 926 466.925 926 469C926 471.075 925.606 473.025 924.818 474.85C924.031 476.675 922.963 478.263 921.613 479.613C920.263 480.963 918.675 482.031 916.85 482.818C915.025 483.606 913.075 484 911 484ZM911 481C914.35 481 917.187 479.837 919.512 477.512C921.837 475.187 923 472.35 923 469C923 465.65 921.837 462.812 919.512 460.487C917.187 458.162 914.35 457 911 457C907.65 457 904.812 458.162 902.487 460.487C900.162 462.812 899 465.65 899 469C899 472.35 900.162 475.187 902.487 477.512C904.812 479.837 907.65 481 911 481Z" fill="#333333" fill-opacity="0.1"/>
<path d="M1086 584C1083.93 584 1081.98 583.606 1080.15 582.818C1078.33 582.031 1076.74 580.963 1075.39 579.613C1074.04 578.263 1072.97 576.675 1072.18 574.85C1071.39 573.025 1071 571.075 1071 569C1071 566.925 1071.39 564.975 1072.18 563.15C1072.97 561.325 1074.04 559.738 1075.39 558.388C1076.74 557.038 1078.33 555.968 1080.15 555.18C1081.98 554.393 1083.93 554 1086 554C1088.07 554 1090.02 554.393 1091.85 555.18C1093.67 555.968 1095.26 557.038 1096.61 558.388C1097.96 559.738 1099.03 561.325 1099.82 563.15C1100.61 564.975 1101 566.925 1101 569C1101 571.075 1100.61 573.025 1099.82 574.85C1099.03 576.675 1097.96 578.263 1096.61 579.613C1095.26 580.963 1093.67 582.031 1091.85 582.818C1090.02 583.606 1088.07 584 1086 584ZM1086 581C1089.35 581 1092.19 579.837 1094.51 577.512C1096.84 575.187 1098 572.35 1098 569C1098 565.65 1096.84 562.812 1094.51 560.487C1092.19 558.162 1089.35 557 1086 557C1082.65 557 1079.81 558.162 1077.49 560.487C1075.16 562.812 1074 565.65 1074 569C1074 572.35 1075.16 575.187 1077.49 577.512C1079.81 579.837 1082.65 581 1086 581Z" fill="#333333" fill-opacity="0.1"/>
<path d="M1337 312C1334.93 312 1332.98 311.606 1331.15 310.818C1329.33 310.031 1327.74 308.963 1326.39 307.613C1325.04 306.263 1323.97 304.675 1323.18 302.85C1322.39 301.025 1322 299.075 1322 297C1322 294.925 1322.39 292.975 1323.18 291.15C1323.97 289.325 1325.04 287.738 1326.39 286.388C1327.74 285.038 1329.33 283.968 1331.15 283.18C1332.98 282.393 1334.93 282 1337 282C1339.07 282 1341.02 282.393 1342.85 283.18C1344.67 283.968 1346.26 285.038 1347.61 286.388C1348.96 287.738 1350.03 289.325 1350.82 291.15C1351.61 292.975 1352 294.925 1352 297C1352 299.075 1351.61 301.025 1350.82 302.85C1350.03 304.675 1348.96 306.263 1347.61 307.613C1346.26 308.963 1344.67 310.031 1342.85 310.818C1341.02 311.606 1339.07 312 1337 312ZM1337 309C1340.35 309 1343.19 307.837 1345.51 305.512C1347.84 303.187 1349 300.35 1349 297C1349 293.65 1347.84 290.812 1345.51 288.487C1343.19 286.162 1340.35 285 1337 285C1333.65 285 1330.81 286.162 1328.49 288.487C1326.16 290.812 1325 293.65 1325 297C1325 300.35 1326.16 303.187 1328.49 305.512C1330.81 307.837 1333.65 309 1337 309Z" fill="#333333" fill-opacity="0.1"/>
<path d="M1225 30C1222.93 30 1220.98 29.606 1219.15 28.818C1217.33 28.031 1215.74 26.9625 1214.39 25.6125C1213.04 24.2625 1211.97 22.675 1211.18 20.85C1210.39 19.025 1210 17.075 1210 15C1210 12.925 1210.39 10.975 1211.18 9.15C1211.97 7.325 1213.04 5.7375 1214.39 4.3875C1215.74 3.0375 1217.33 1.9685 1219.15 1.1805C1220.98 0.3935 1222.93 0 1225 0C1227.07 0 1229.02 0.3935 1230.85 1.1805C1232.67 1.9685 1234.26 3.0375 1235.61 4.3875C1236.96 5.7375 1238.03 7.325 1238.82 9.15C1239.61 10.975 1240 12.925 1240 15C1240 17.075 1239.61 19.025 1238.82 20.85C1238.03 22.675 1236.96 24.2625 1235.61 25.6125C1234.26 26.9625 1232.67 28.031 1230.85 28.818C1229.02 29.606 1227.07 30 1225 30ZM1225 27C1228.35 27 1231.19 25.8375 1233.51 23.5125C1235.84 21.1875 1237 18.35 1237 15C1237 11.65 1235.84 8.8125 1233.51 6.4875C1231.19 4.1625 1228.35 3 1225 3C1221.65 3 1218.81 4.1625 1216.49 6.4875C1214.16 8.8125 1213 11.65 1213 15C1213 18.35 1214.16 21.1875 1216.49 23.5125C1218.81 25.8375 1221.65 27 1225 27Z" fill="#333333" fill-opacity="0.1"/>
<path d="M1367 848C1364.93 848 1362.98 847.606 1361.15 846.818C1359.33 846.031 1357.74 844.963 1356.39 843.613C1355.04 842.263 1353.97 840.675 1353.18 838.85C1352.39 837.025 1352 835.075 1352 833C1352 830.925 1352.39 828.975 1353.18 827.15C1353.97 825.325 1355.04 823.738 1356.39 822.388C1357.74 821.038 1359.33 819.968 1361.15 819.18C1362.98 818.393 1364.93 818 1367 818C1369.07 818 1371.02 818.393 1372.85 819.18C1374.67 819.968 1376.26 821.038 1377.61 822.388C1378.96 823.738 1380.03 825.325 1380.82 827.15C1381.61 828.975 1382 830.925 1382 833C1382 835.075 1381.61 837.025 1380.82 838.85C1380.03 840.675 1378.96 842.263 1377.61 843.613C1376.26 844.963 1374.67 846.031 1372.85 846.818C1371.02 847.606 1369.07 848 1367 848ZM1367 845C1370.35 845 1373.19 843.837 1375.51 841.512C1377.84 839.187 1379 836.35 1379 833C1379 829.65 1377.84 826.812 1375.51 824.487C1373.19 822.162 1370.35 821 1367 821C1363.65 821 1360.81 822.162 1358.49 824.487C1356.16 826.812 1355 829.65 1355 833C1355 836.35 1356.16 839.187 1358.49 841.512C1360.81 843.837 1363.65 845 1367 845Z" fill="#333333" fill-opacity="0.1"/>
<path d="M1088 856C1085.93 856 1083.98 855.606 1082.15 854.818C1080.33 854.031 1078.74 852.963 1077.39 851.613C1076.04 850.263 1074.97 848.675 1074.18 846.85C1073.39 845.025 1073 843.075 1073 841C1073 838.925 1073.39 836.975 1074.18 835.15C1074.97 833.325 1076.04 831.738 1077.39 830.388C1078.74 829.038 1080.33 827.968 1082.15 827.18C1083.98 826.393 1085.93 826 1088 826C1090.07 826 1092.02 826.393 1093.85 827.18C1095.67 827.968 1097.26 829.038 1098.61 830.388C1099.96 831.738 1101.03 833.325 1101.82 835.15C1102.61 836.975 1103 838.925 1103 841C1103 843.075 1102.61 845.025 1101.82 846.85C1101.03 848.675 1099.96 850.263 1098.61 851.613C1097.26 852.963 1095.67 854.031 1093.85 854.818C1092.02 855.606 1090.07 856 1088 856ZM1088 853C1091.35 853 1094.19 851.837 1096.51 849.512C1098.84 847.187 1100 844.35 1100 841C1100 837.65 1098.84 834.812 1096.51 832.487C1094.19 830.162 1091.35 829 1088 829C1084.65 829 1081.81 830.162 1079.49 832.487C1077.16 834.812 1076 837.65 1076 841C1076 844.35 1077.16 847.187 1079.49 849.512C1081.81 851.837 1084.65 853 1088 853Z" fill="#333333" fill-opacity="0.1"/>
<path d="M1382 85C1379.93 85 1377.98 84.606 1376.15 83.818C1374.33 83.031 1372.74 81.9625 1371.39 80.6125C1370.04 79.2625 1368.97 77.675 1368.18 75.85C1367.39 74.025 1367 72.075 1367 70C1367 67.925 1367.39 65.975 1368.18 64.15C1368.97 62.325 1370.04 60.7375 1371.39 59.3875C1372.74 58.0375 1374.33 56.9685 1376.15 56.1805C1377.98 55.3935 1379.93 55 1382 55C1384.07 55 1386.02 55.3935 1387.85 56.1805C1389.67 56.9685 1391.26 58.0375 1392.61 59.3875C1393.96 60.7375 1395.03 62.325 1395.82 64.15C1396.61 65.975 1397 67.925 1397 70C1397 72.075 1396.61 74.025 1395.82 75.85C1395.03 77.675 1393.96 79.2625 1392.61 80.6125C1391.26 81.9625 1389.67 83.031 1387.85 83.818C1386.02 84.606 1384.07 85 1382 85ZM1382 82C1385.35 82 1388.19 80.8375 1390.51 78.5125C1392.84 76.1875 1394 73.35 1394 70C1394 66.65 1392.84 63.8125 1390.51 61.4875C1388.19 59.1625 1385.35 58 1382 58C1378.65 58 1375.81 59.1625 1373.49 61.4875C1371.16 63.8125 1370 66.65 1370 70C1370 73.35 1371.16 76.1875 1373.49 78.5125C1375.81 80.8375 1378.65 82 1382 82Z" fill="#333333" fill-opacity="0.1"/>
<path d="M1367 572C1364.93 572 1362.98 571.606 1361.15 570.818C1359.33 570.031 1357.74 568.963 1356.39 567.613C1355.04 566.263 1353.97 564.675 1353.18 562.85C1352.39 561.025 1352 559.075 1352 557C1352 554.925 1352.39 552.975 1353.18 551.15C1353.97 549.325 1355.04 547.738 1356.39 546.388C1357.74 545.038 1359.33 543.968 1361.15 543.18C1362.98 542.393 1364.93 542 1367 542C1369.07 542 1371.02 542.393 1372.85 543.18C1374.67 543.968 1376.26 545.038 1377.61 546.388C1378.96 547.738 1380.03 549.325 1380.82 551.15C1381.61 552.975 1382 554.925 1382 557C1382 559.075 1381.61 561.025 1380.82 562.85C1380.03 564.675 1378.96 566.263 1377.61 567.613C1376.26 568.963 1374.67 570.031 1372.85 570.818C1371.02 571.606 1369.07 572 1367 572ZM1367 569C1370.35 569 1373.19 567.837 1375.51 565.512C1377.84 563.187 1379 560.35 1379 557C1379 553.65 1377.84 550.812 1375.51 548.487C1373.19 546.162 1370.35 545 1367 545C1363.65 545 1360.81 546.162 1358.49 548.487C1356.16 550.812 1355 553.65 1355 557C1355 560.35 1356.16 563.187 1358.49 565.512C1360.81 567.837 1363.65 569 1367 569Z" fill="#333333" fill-opacity="0.1"/>
<path d="M54.824 182.254L60.2933 165.357L77.19 170.826L78.2535 167.541L61.3567 162.071L66.826 145.174L63.5405 144.111L58.0713 161.008L41.1745 155.539L40.111 158.824L57.0078 164.293L51.5385 181.19L54.824 182.254Z" fill="#333333" fill-opacity="0.1"/>
<path d="M671.824 79.2535L677.293 62.3567L694.19 67.826L695.254 64.5405L678.357 59.0713L683.826 42.1745L680.54 41.111L675.071 58.0078L658.174 52.5386L657.111 55.824L674.008 61.2933L668.539 78.1901L671.824 79.2535Z" fill="#333333" fill-opacity="0.1"/>
<path d="M992.824 416.253L998.293 399.357L1015.19 404.826L1016.25 401.54L999.357 396.071L1004.83 379.174L1001.54 378.111L996.071 395.008L979.174 389.539L978.111 392.824L995.008 398.293L989.539 415.19L992.824 416.253Z" fill="#333333" fill-opacity="0.1"/>
<path d="M1260.82 518.253L1266.29 501.357L1283.19 506.826L1284.25 503.54L1267.36 498.071L1272.83 481.174L1269.54 480.111L1264.07 497.008L1247.17 491.539L1246.11 494.824L1263.01 500.293L1257.54 517.19L1260.82 518.253Z" fill="#333333" fill-opacity="0.1"/>
<path d="M1130.82 344.253L1136.29 327.357L1153.19 332.826L1154.25 329.54L1137.36 324.071L1142.83 307.174L1139.54 306.111L1134.07 323.008L1117.17 317.539L1116.11 320.824L1133.01 326.293L1127.54 343.19L1130.82 344.253Z" fill="#333333" fill-opacity="0.1"/>
<path d="M717.824 243.254L723.293 226.357L740.19 231.826L741.254 228.54L724.357 223.071L729.826 206.174L726.54 205.111L721.071 222.008L704.174 216.539L703.111 219.824L720.008 225.293L714.539 242.19L717.824 243.254Z" fill="#333333" fill-opacity="0.1"/>
<path d="M172.824 256.254L178.293 239.357L195.19 244.826L196.254 241.54L179.357 236.071L184.826 219.174L181.54 218.111L176.071 235.008L159.174 229.539L158.111 232.824L175.008 238.293L169.539 255.19L172.824 256.254Z" fill="#333333" fill-opacity="0.1"/>
<path d="M390.824 79.2535L396.293 62.3567L413.19 67.826L414.254 64.5405L397.357 59.0712L402.826 42.1745L399.54 41.111L394.071 58.0078L377.174 52.5385L376.111 55.824L393.008 61.2933L387.539 78.19L390.824 79.2535Z" fill="#333333" fill-opacity="0.1"/>
<path d="M96.824 599.253L102.293 582.357L119.19 587.826L120.254 584.54L103.357 579.071L108.826 562.174L105.54 561.111L100.071 578.008L83.1745 572.539L82.111 575.824L99.0078 581.293L93.5385 598.19L96.824 599.253Z" fill="#333333" fill-opacity="0.1"/>
<path d="M370.824 560.253L376.293 543.357L393.19 548.826L394.254 545.54L377.357 540.071L382.826 523.174L379.54 522.111L374.071 539.008L357.174 533.539L356.111 536.824L373.008 542.293L367.539 559.19L370.824 560.253Z" fill="#333333" fill-opacity="0.1"/>
<path d="M348.824 741.253L354.293 724.357L371.19 729.826L372.254 726.54L355.357 721.071L360.826 704.174L357.54 703.111L352.071 720.008L335.174 714.539L334.111 717.824L351.008 723.293L345.539 740.19L348.824 741.253Z" fill="#333333" fill-opacity="0.1"/>
<path d="M15.824 832.253L21.2933 815.357L38.19 820.826L39.2535 817.54L22.3567 812.071L27.826 795.174L24.5405 794.111L19.0713 811.008L2.17448 805.539L1.11101 808.824L18.0078 814.293L12.5385 831.19L15.824 832.253Z" fill="#333333" fill-opacity="0.1"/>
<path d="M513.824 792.253L519.293 775.357L536.19 780.826L537.254 777.54L520.357 772.071L525.826 755.174L522.54 754.111L517.071 771.008L500.174 765.539L499.111 768.824L516.008 774.293L510.539 791.19L513.824 792.253Z" fill="#333333" fill-opacity="0.1"/>
<path d="M548.824 649.253L554.293 632.357L571.19 637.826L572.254 634.54L555.357 629.071L560.826 612.174L557.54 611.111L552.071 628.008L535.174 622.539L534.111 625.824L551.008 631.293L545.539 648.19L548.824 649.253Z" fill="#333333" fill-opacity="0.1"/>
<path d="M533.824 468.254L539.293 451.357L556.19 456.826L557.254 453.541L540.357 448.071L545.826 431.174L542.54 430.111L537.071 447.008L520.174 441.539L519.111 444.824L536.008 450.293L530.539 467.19L533.824 468.254Z" fill="#333333" fill-opacity="0.1"/>
<path d="M906.824 875.253L912.293 858.357L929.19 863.826L930.254 860.54L913.357 855.071L918.826 838.174L915.54 837.111L910.071 854.008L893.174 848.539L892.111 851.824L909.008 857.293L903.539 874.19L906.824 875.253Z" fill="#333333" fill-opacity="0.1"/>
<path d="M1235.82 748.253L1241.29 731.357L1258.19 736.826L1259.25 733.54L1242.36 728.071L1247.83 711.174L1244.54 710.111L1239.07 727.008L1222.17 721.539L1221.11 724.824L1238.01 730.293L1232.54 747.19L1235.82 748.253Z" fill="#333333" fill-opacity="0.1"/>
<path d="M1412.82 712.253L1418.29 695.357L1435.19 700.826L1436.25 697.54L1419.36 692.071L1424.83 675.174L1421.54 674.111L1416.07 691.008L1399.17 685.539L1398.11 688.824L1415.01 694.293L1409.54 711.19L1412.82 712.253Z" fill="#333333" fill-opacity="0.1"/>
<path d="M770.824 712.253L776.293 695.357L793.19 700.826L794.254 697.54L777.357 692.071L782.826 675.174L779.54 674.111L774.071 691.008L757.174 685.539L756.111 688.824L773.008 694.293L767.539 711.19L770.824 712.253Z" fill="#333333" fill-opacity="0.1"/>
<path d="M932.824 623.253L938.293 606.357L955.19 611.826L956.254 608.54L939.357 603.071L944.826 586.174L941.54 585.111L936.071 602.008L919.174 596.539L918.111 599.824L935.008 605.293L929.539 622.19L932.824 623.253Z" fill="#333333" fill-opacity="0.1"/>
<path d="M1046.82 746.253L1052.29 729.357L1069.19 734.826L1070.25 731.54L1053.36 726.071L1058.83 709.174L1055.54 708.111L1050.07 725.008L1033.17 719.539L1032.11 722.824L1049.01 728.293L1043.54 745.19L1046.82 746.253Z" fill="#333333" fill-opacity="0.1"/>
<path d="M1046.82 69.2535L1052.29 52.3567L1069.19 57.826L1070.25 54.5405L1053.36 49.0712L1058.83 32.1745L1055.54 31.111L1050.07 48.0078L1033.17 42.5385L1032.11 45.824L1049.01 51.2933L1043.54 68.19L1046.82 69.2535Z" fill="#333333" fill-opacity="0.1"/>
<path d="M1215.82 182.253L1221.29 165.357L1238.19 170.826L1239.25 167.54L1222.36 162.071L1227.83 145.174L1224.54 144.111L1219.07 161.008L1202.17 155.539L1201.11 158.824L1218.01 164.293L1212.54 181.19L1215.82 182.253Z" fill="#333333" fill-opacity="0.1"/>
<path d="M1430.82 384.253L1436.29 367.357L1453.19 372.826L1454.25 369.54L1437.36 364.071L1442.83 347.174L1439.54 346.111L1434.07 363.008L1417.17 357.539L1416.11 360.824L1433.01 366.293L1427.54 383.19L1430.82 384.253Z" fill="#333333" fill-opacity="0.1"/>
</svg>
