<svg width="184" height="167" viewBox="0 0 184 167" fill="none" xmlns="http://www.w3.org/2000/svg">
<path d="M175 100.017H166.667C166.667 67.7671 140.583 41.6838 108.333 41.6838H100V31.1004C102.534 29.6372 104.639 27.5326 106.101 24.9981C107.564 22.4637 108.334 19.5887 108.333 16.6624C108.333 13.7361 107.561 10.8615 106.097 8.32778C104.633 5.79406 102.528 3.69051 99.9926 2.22864C97.4576 0.76677 94.5823 -0.00187211 91.656 3.42409e-06C88.7296 0.00187896 85.8554 0.774207 83.3222 2.23932C80.7891 3.70444 78.6863 5.81069 77.2254 8.34628C75.7645 10.8819 74.997 13.7574 75 16.6838C75 22.8504 78.3333 28.2671 83.3333 31.1004V41.6838H75C42.75 41.6838 16.6667 67.7671 16.6667 100.017H8.33333C3.75 100.017 0 103.767 0 108.35V133.35C0 137.934 3.75 141.684 8.33333 141.684H16.6667V150.017C16.6667 154.437 18.4226 158.677 21.5482 161.802C24.6738 164.928 28.9131 166.684 33.3333 166.684H150C159.25 166.684 166.667 159.267 166.667 150.017V141.684H175C179.583 141.684 183.333 137.934 183.333 133.35V108.35C183.333 103.767 179.583 100.017 175 100.017ZM73.8333 122.35L64 132.184L54.1667 122.35L44.3333 132.184L34.5 122.35L44.3333 112.517L34.5 102.684L44.3333 92.8504L54.1667 102.684L64 92.8504L73.8333 102.684L64 112.517L73.8333 122.35ZM148.833 122.35L139 132.184L129.167 122.35L119.333 132.184L109.5 122.35L119.333 112.517L109.5 102.684L119.333 92.8504L129.167 102.684L139 92.8504L148.833 102.684L139 112.517L148.833 122.35Z" fill="#333333"/>
</svg>
