<svg width="184" height="167" viewBox="0 0 184 167" fill="none" xmlns="http://www.w3.org/2000/svg">
<path d="M91.6667 0C96.0869 0 100.326 1.75595 103.452 4.88155C106.577 8.00716 108.333 12.2464 108.333 16.6667C108.333 22.8333 105 28.25 100 31.0833V41.6667H108.333C123.804 41.6667 138.642 47.8125 149.581 58.7521C160.521 69.6917 166.667 84.529 166.667 100H175C177.21 100 179.33 100.878 180.893 102.441C182.455 104.004 183.333 106.123 183.333 108.333V133.333C183.333 135.543 182.455 137.663 180.893 139.226C179.33 140.789 177.21 141.667 175 141.667H166.667V150C166.667 154.42 164.911 158.66 161.785 161.785C158.66 164.911 154.42 166.667 150 166.667H33.3333C28.9131 166.667 24.6738 164.911 21.5482 161.785C18.4226 158.66 16.6667 154.42 16.6667 150V141.667H8.33333C6.1232 141.667 4.00358 140.789 2.44078 139.226C0.877973 137.663 0 135.543 0 133.333V108.333C0 106.123 0.877973 104.004 2.44078 102.441C4.00358 100.878 6.1232 100 8.33333 100H16.6667C16.6667 84.529 22.8125 69.6917 33.7521 58.7521C44.6917 47.8125 59.529 41.6667 75 41.6667H83.3333V31.0833C78.3333 28.25 75 22.8333 75 16.6667C75 12.2464 76.756 8.00716 79.8816 4.88155C83.0072 1.75595 87.2464 0 91.6667 0ZM54.1667 91.6667C48.6413 91.6667 43.3423 93.8616 39.4353 97.7686C35.5283 101.676 33.3333 106.975 33.3333 112.5C33.3333 118.025 35.5283 123.324 39.4353 127.231C43.3423 131.138 48.6413 133.333 54.1667 133.333C59.692 133.333 64.9911 131.138 68.8981 127.231C72.8051 123.324 75 118.025 75 112.5C75 106.975 72.8051 101.676 68.8981 97.7686C64.9911 93.8616 59.692 91.6667 54.1667 91.6667ZM129.167 91.6667C123.641 91.6667 118.342 93.8616 114.435 97.7686C110.528 101.676 108.333 106.975 108.333 112.5C108.333 118.025 110.528 123.324 114.435 127.231C118.342 131.138 123.641 133.333 129.167 133.333C134.692 133.333 139.991 131.138 143.898 127.231C147.805 123.324 150 118.025 150 112.5C150 106.975 147.805 101.676 143.898 97.7686C139.991 93.8616 134.692 91.6667 129.167 91.6667Z" fill="#333333"/>
</svg>
