<svg width="168" height="168" viewBox="0 0 168 168" fill="none" xmlns="http://www.w3.org/2000/svg">
<path d="M84 84.0001C72.5417 84.0001 62.7327 79.9202 54.5729 71.7605C46.4132 63.6008 42.3334 53.7917 42.3334 42.3334C42.3334 30.8751 46.4132 21.0661 54.5729 12.9063C62.7327 4.74661 72.5417 0.666748 84 0.666748C95.4584 0.666748 105.267 4.74661 113.427 12.9063C121.587 21.0661 125.667 30.8751 125.667 42.3334C125.667 53.7917 121.587 63.6008 113.427 71.7605C105.267 79.9202 95.4584 84.0001 84 84.0001ZM21.5 167.333C15.7709 167.333 10.8681 165.295 6.79168 161.219C2.70835 157.135 0.666687 152.229 0.666687 146.5V138.167C0.666687 132.264 2.18752 126.837 5.22919 121.885C8.26391 116.941 12.2986 113.167 17.3334 110.563C28.0972 105.181 39.0347 101.142 50.1459 98.448C61.257 95.7605 72.5417 94.4167 84 94.4167C95.4584 94.4167 106.743 95.7605 117.854 98.448C128.965 101.142 139.903 105.181 150.667 110.563C155.701 113.167 159.736 116.941 162.771 121.885C165.813 126.837 167.333 132.264 167.333 138.167V146.5C167.333 152.229 165.295 157.135 161.219 161.219C157.135 165.295 152.229 167.333 146.5 167.333H21.5Z" fill="#333333"/>
</svg>
